<!DOCTYPE svg PUBLIC "-//W3C//DTD SVG 1.1//EN" "http://www.w3.org/Graphics/SVG/1.1/DTD/svg11.dtd">
<!-- Uploaded to: SVG Repo, www.svgrepo.com, Transformed by: SVG Repo Mixer Tools -->
<svg fill="#198716" height="800px" width="800px" version="1.1" id="Layer_1" xmlns="http://www.w3.org/2000/svg" xmlns:xlink="http://www.w3.org/1999/xlink" viewBox="0 0 512 512" xml:space="preserve" stroke="#198716">
<g id="SVGRepo_bgCarrier" stroke-width="0"/>
<g id="SVGRepo_tracerCarrier" stroke-linecap="round" stroke-linejoin="round"/>
<g id="SVGRepo_iconCarrier"> <g> <g> <path d="M226.767,253.801c-0.18-0.886-0.443-1.758-0.788-2.586c-0.346-0.831-0.774-1.633-1.272-2.38 c-0.512-0.761-1.079-1.466-1.715-2.102c-0.65-0.65-1.355-1.217-2.116-1.729c-0.747-0.498-1.549-0.926-2.378-1.272 c-0.844-0.346-1.715-0.608-2.586-0.788c-1.784-0.359-3.623-0.359-5.407,0c-0.885,0.18-1.756,0.443-2.586,0.788 c-0.844,0.346-1.646,0.774-2.392,1.272c-0.761,0.512-1.466,1.079-2.102,1.729c-0.636,0.636-1.217,1.341-1.715,2.102 c-0.498,0.747-0.927,1.549-1.272,2.38c-0.346,0.83-0.608,1.7-0.788,2.586c-0.18,0.897-0.277,1.812-0.277,2.71 c0,0.897,0.097,1.812,0.277,2.695c0.18,0.886,0.443,1.758,0.788,2.586c0.346,0.844,0.774,1.646,1.272,2.392 c0.498,0.761,1.079,1.466,1.715,2.102s1.355,1.217,2.102,1.715c0.747,0.498,1.549,0.926,2.392,1.272 c0.83,0.346,1.701,0.608,2.586,0.788c0.885,0.18,1.798,0.277,2.697,0.277c0.899,0,1.811-0.097,2.71-0.277 c0.871-0.18,1.742-0.443,2.586-0.788c0.83-0.346,1.632-0.774,2.378-1.272c0.761-0.498,1.466-1.079,2.116-1.715 c0.636-0.636,1.203-1.341,1.715-2.102c0.498-0.747,0.926-1.549,1.272-2.392c0.346-0.83,0.608-1.7,0.788-2.586 c0.18-0.885,0.263-1.798,0.263-2.695C227.029,255.612,226.946,254.698,226.767,253.801z"/> </g> </g> <g> <g> <path d="M388.849,177.773c-0.636-0.636-1.341-1.203-2.102-1.715c-0.747-0.496-1.549-0.927-2.392-1.272 c-0.83-0.346-1.701-0.607-2.586-0.788c-1.784-0.36-3.609-0.36-5.393,0c-0.885,0.181-1.756,0.443-2.586,0.788 c-0.844,0.346-1.646,0.776-2.392,1.272c-0.761,0.512-1.466,1.079-2.102,1.715c-2.572,2.586-4.052,6.154-4.052,9.79 c0,3.637,1.48,7.191,4.052,9.777c0.636,0.636,1.341,1.217,2.102,1.713c0.747,0.498,1.549,0.926,2.392,1.272 c0.83,0.346,1.701,0.608,2.586,0.788c0.885,0.18,1.798,0.263,2.697,0.263c0.899,0,1.811-0.084,2.697-0.263 c0.885-0.18,1.756-0.443,2.586-0.788c0.844-0.346,1.646-0.774,2.392-1.272c0.761-0.496,1.466-1.077,2.102-1.713 c2.572-2.586,4.052-6.14,4.052-9.777C392.9,183.926,391.421,180.359,388.849,177.773z"/> </g> </g> <g> <g> <path d="M444.334,2.464c-3.723-2.582-8.475-3.174-12.725-1.59L153.051,105.005c-5.404,2.02-8.987,7.184-8.987,12.953v97.061 v131.676c-45.433,0.17-82.342,37.176-82.342,82.648c0,45.577,37.079,82.656,82.656,82.656s82.656-37.079,82.656-82.656V297.991 c0-7.636-6.191-13.828-13.828-13.828s-13.828,6.192-13.828,13.828v69.721c-7.984-7.133-17.356-12.733-27.657-16.355V224.613 l250.903-93.794v188.072c-8.515-7.607-18.607-13.476-29.723-17.056v-72.795c0-7.636-6.191-13.828-13.828-13.828 s-13.828,6.192-13.828,13.828v68.887c-44.477,1.267-80.278,37.816-80.278,82.595c0,45.577,37.079,82.656,82.656,82.656 c45.577,0,82.656-37.079,82.656-82.656V110.888V13.827C450.28,9.292,448.058,5.048,444.334,2.464z M199.377,429.343 c0,30.327-24.673,55-54.999,55c-30.327,0-55-24.674-55-55c0-30.326,24.673-54.998,55-54.998 C174.704,374.345,199.377,399.017,199.377,429.343z M367.624,435.525c-30.327,0-54.999-24.673-54.999-54.999 c0-30.327,24.673-54.998,54.999-54.998c30.327,0,55,24.673,55,54.998C422.623,410.852,397.951,435.525,367.624,435.525z M422.623,101.295L171.72,195.089v-67.536l250.903-93.794V101.295z"/> </g> </g> </g>
</svg>